# xmcd CD database file
#
# Track frame offsets:
#	150
#	18685
#	44267
#	68482
#	83867
#	105412
#	121360
#
# Disc length: 1887 seconds
#
# Revision: 0
# Processed by: cddbd v1.4PL0 Copyright (c) Steve Scherf et al.
# Submitted via: CDex 1.40Release
#
DISCID=51075d07
DTITLE=Drew Kennedy - Hillbilly Pilgrim
DYEAR=2003
DGENRE=Country
TTITLE0=Down in Flames
TTITLE1=Livin' or Dyin' 
TTITLE2=Cincinnati
TTITLE3=Long Highway
TTITLE4=I Do
TTITLE5=White Lightning
TTITLE6=Goodnight Mississippi
EXTD=YEAR: 2003 ID3G: 2
EXTT0=
EXTT1=
EXTT2=
EXTT3=
EXTT4=
EXTT5=
EXTT6=
PLAYORDER=
